<mxfile host="65bd71144e">
    <diagram id="pIaEtrtLPv3HG8r1JEND" name="Page-1">
        <mxGraphModel dx="1074" dy="684" grid="1" gridSize="10" guides="1" tooltips="1" connect="1" arrows="1" fold="1" page="1" pageScale="1" pageWidth="850" pageHeight="1100" math="0" shadow="0">
            <root>
                <mxCell id="0"/>
                <mxCell id="1" parent="0"/>
                <mxCell id="2" value="" style="rounded=0;whiteSpace=wrap;html=1;" parent="1" vertex="1">
                    <mxGeometry x="50" y="160" width="570" height="450" as="geometry"/>
                </mxCell>
                <mxCell id="6" value="Calculate" style="labelPosition=center;verticalLabelPosition=middle;align=center;html=1;shape=mxgraph.basic.button;dx=10;" parent="1" vertex="1">
                    <mxGeometry x="80" y="460" width="100" height="40" as="geometry"/>
                </mxCell>
                <mxCell id="8" value="&lt;span&gt;&lt;font style=&quot;font-size: 22px&quot;&gt;Positive and Negative numbers with JS&lt;/font&gt;&lt;/span&gt;" style="rounded=1;whiteSpace=wrap;html=1;absoluteArcSize=1;arcSize=14;strokeWidth=2;align=left;" parent="1" vertex="1">
                    <mxGeometry x="60" y="180" width="530" height="80" as="geometry"/>
                </mxCell>
                <mxCell id="9" value="" style="line;strokeWidth=2;html=1;fontSize=22;" parent="1" vertex="1">
                    <mxGeometry x="70" y="430" width="290" height="10" as="geometry"/>
                </mxCell>
                <mxCell id="10" value="&lt;p style=&quot;padding: 0px ; line-height: 24px ; margin: 0px 0px 16px ; color: rgba(0 , 0 , 0 , 0.87) ; font-family: &amp;#34;helvetica&amp;#34; , &amp;#34;arial&amp;#34; , sans-serif ; font-size: 13px&quot;&gt;&lt;b&gt;&lt;font style=&quot;font-size: 13px&quot;&gt;Use the slider to choose a positive or negative number&lt;/font&gt;&lt;/b&gt;&lt;/p&gt;&lt;p style=&quot;padding: 0px ; line-height: 24px ; margin: 0px 0px 16px ; color: rgba(0 , 0 , 0 , 0.87) ; font-family: &amp;#34;helvetica&amp;#34; , &amp;#34;arial&amp;#34; , sans-serif ; font-size: 13px&quot;&gt;&lt;b&gt;&lt;font style=&quot;font-size: 13px&quot;&gt;Press the button and we will tell you whether its positive or negative&lt;/font&gt;&lt;/b&gt;&lt;/p&gt;" style="text;html=1;align=left;verticalAlign=middle;resizable=0;points=[];autosize=1;strokeColor=none;fillColor=none;" vertex="1" parent="1">
                    <mxGeometry x="60" y="280" width="440" height="90" as="geometry"/>
                </mxCell>
            </root>
        </mxGraphModel>
    </diagram>
</mxfile>